<?xml version="1.0" encoding="utf-8"?>
<!-- Generator: Adobe Illustrator 22.1.0, SVG Export Plug-In . SVG Version: 6.00 Build 0)  -->
<svg version="1.1" id="Layer_1" xmlns="http://www.w3.org/2000/svg" xmlns:xlink="http://www.w3.org/1999/xlink" x="0px" y="0px"
	 viewBox="0 0 177 288" style="enable-background:new 0 0 177 288;" xml:space="preserve">
<style type="text/css">
	.st0{fill:#FFFFFF;}
</style>
<g>
	<path class="st0" d="M33.9,199.4c2.2,9.7,13.5,18.9,24.4,19.9c20.4,1.9,36.4-12.6,36.4-33.2c0-15.6,0-31.1,0-46.7
		c0-36-27.2-64.9-63.1-66.9c-3.4-0.2-3.9-1.2-3.9-4.2c0.2-7.4,0.2-14.8,0-22.3c-0.1-3.1,1-3.7,3.9-3.7c35.5,0.1,71.1,0.1,106.6,0
		c2.6,0,3.7,0.4,3.7,3.5c-0.2,48.5,0.2,97-0.4,145.5c-0.2,19.5-7.8,36.6-23.7,48.7c-17.9,13.5-37.2,12-56,2.4
		C41,231.9,30.2,214,28,190.9c-0.7-7.5,2.7-13,8.7-15c5.7-1.9,12.2,0.5,15.2,5.6c2.7,4.4,2.4,10.3-0.8,14.5s-8.5,6-13.7,4.6
		C36.3,200.3,35.2,199.8,33.9,199.4z"/>
	<path class="st0" d="M73.1,146.2c0,3.2-2.4,5.6-5.7,5.5c-3.3-0.1-5.2-2-5.4-5.3c-0.2-3.1,2.3-5.8,5.4-5.9
		C70.5,140.5,73.1,143.1,73.1,146.2z"/>
</g>
</svg>
