<?xml version="1.0" encoding="utf-8"?>
<!-- Generator: Adobe Illustrator 22.1.0, SVG Export Plug-In . SVG Version: 6.00 Build 0)  -->
<svg version="1.1" id="Layer_1" xmlns="http://www.w3.org/2000/svg" xmlns:xlink="http://www.w3.org/1999/xlink" x="0px" y="0px"
	 viewBox="0 0 743 288" style="enable-background:new 0 0 743 288;" xml:space="preserve">
<style type="text/css">
	.st0{fill:url(#SVGID_1_);}
	.st1{fill:#FF8700;}
	.st2{fill:#FFFFFF;stroke:#FFFFFF;stroke-width:0.75;stroke-miterlimit:10;}
	.st3{fill:#EFEFEF;stroke:#000000;stroke-width:2;stroke-miterlimit:10;}
	.st4{fill:url(#SVGID_2_);}
</style>
<linearGradient id="SVGID_1_" gradientUnits="userSpaceOnUse" x1="38.7803" y1="144.1677" x2="152.9599" y2="144.1677">
	<stop  offset="0" style="stop-color:#FF8700"/>
	<stop  offset="1" style="stop-color:#FCCA25"/>
</linearGradient>
<path class="st0" d="M44.9,197.4c2.2,9.7,13.5,18.9,24.4,19.9c20.4,1.9,36.4-12.6,36.4-33.2c0-15.6,0-31.1,0-46.7
	c0-36-27.2-64.9-63.1-66.9c-3.4-0.2-3.9-1.2-3.9-4.2c0.2-7.4,0.2-14.8,0-22.3c-0.1-3.1,1-3.7,3.9-3.7c35.5,0.1,71.1,0.1,106.6,0
	c2.6,0,3.7,0.4,3.7,3.5c-0.2,48.5,0.2,97-0.4,145.5c-0.2,19.5-7.8,36.6-23.7,48.7c-17.9,13.5-37.2,12-56,2.4
	C52,229.9,41.2,212,39,188.9c-0.7-7.5,2.7-13,8.7-15c5.7-1.9,12.2,0.5,15.2,5.6c2.7,4.4,2.4,10.3-0.8,14.5c-3.2,4.2-8.5,6-13.7,4.6
	C47.3,198.3,46.2,197.8,44.9,197.4z"/>
<path class="st1" d="M84.1,144.2c0,3.2-2.4,5.6-5.7,5.5c-3.3-0.1-5.2-2-5.4-5.3c-0.2-3.1,2.3-5.8,5.4-5.9
	C81.5,138.5,84.1,141.1,84.1,144.2z"/>
<g>
	<path class="st2" d="M269.5,102.2c-0.7,0.1-1.5,0-2.2-0.2c-1.4-0.3-3.3-0.5-5.6-0.8c-2.3-0.3-4.8-0.5-7.4-0.7
		c-2.6-0.2-5.3-0.4-8-0.5c-2.7-0.1-5.1-0.2-7.3-0.2c-4,3.9-7.8,8.3-11.5,13.1c-3.7,4.9-7.1,9.6-10.1,14.3c2.6-0.2,5.4-0.4,8.5-0.5
		c3-0.1,6.1-0.2,9.1-0.2c3,0,6.1,0,9,0c3,0.1,5.7,0.2,8.3,0.4c0.9,0.1,1.4,0.5,1.4,1.1c0,0.6-0.4,0.9-1.4,0.9c-1.6,0-3.4,0-5.5,0.1
		c-2.1,0.1-4.4,0.2-6.8,0.3c-2.4,0.1-4.8,0.3-7.3,0.5c-2.5,0.2-4.8,0.4-7.1,0.6c-2.3,0.2-4.4,0.5-6.3,0.8c-1.9,0.3-3.5,0.6-4.7,0.9
		c-0.8,1.5-1.8,3.2-2.7,5c-1,1.8-1.9,3.8-2.7,5.9c-0.8,2.1-1.6,4.3-2.1,6.6c-0.6,2.3-0.9,4.6-1,6.9c0,1.8,0.4,3.2,1.1,4.4
		c0.7,1.2,1.6,2.1,2.8,2.7c1.1,0.6,2.4,1.1,3.8,1.3c1.4,0.2,2.8,0.2,4.1,0.1c1.9-0.1,4.2-0.5,6.8-1c2.6-0.5,5.2-1.2,8-2
		c2.8-0.8,5.6-1.8,8.5-2.9c2.9-1.1,5.5-2.4,8-3.8c0.7-0.4,1.1-0.4,1.2,0.1c0.1,0.5-0.1,0.8-0.5,1.1c-2.3,1.9-4.9,3.5-7.6,5
		c-2.8,1.4-5.5,2.6-8.4,3.6c-2.8,1-5.6,1.7-8.4,2.2c-2.8,0.5-5.3,0.8-7.6,0.8c-0.8,0-2-0.2-3.6-0.5c-1.5-0.4-3.1-1-4.6-1.8
		c-1.6-0.9-3-2.1-4.2-3.6c-1.2-1.5-1.9-3.5-2.1-5.8c-0.1-1.8,0-3.7,0.4-5.9c0.4-2.2,1-4.3,1.7-6.4c0.7-2.1,1.5-4.1,2.3-5.9
		c0.8-1.9,1.7-3.4,2.4-4.6c-0.5,0-1.1,0-1.7-0.1c-0.6-0.1-1-0.4-1.4-0.9c-0.2-0.1-0.4-0.3-0.7-0.6c-0.3-0.3-0.5-0.6-0.6-1
		c-0.2-0.4-0.2-0.7-0.2-1c0-0.4,0.2-0.7,0.5-1.1c0.3-0.3,0.7-0.5,1.3-0.6c0.6-0.1,1.2-0.2,1.9-0.3c0.7-0.1,1.4-0.2,2.1-0.3
		c0.7-0.1,1.3-0.2,1.8-0.3c3.1-4.7,6.4-9.3,9.7-14c3.4-4.6,6.9-9.2,10.5-13.6c-2.7,0-5.7,0.2-8.9,0.5c-3.2,0.4-6.5,0.9-9.8,1.7
		c-3.3,0.7-6.6,1.7-9.8,2.9c-3.2,1.2-6.3,2.6-9,4.3c-3.4,2.3-6.4,5.2-8.9,8.7c-2.5,3.4-4,7.5-4.3,12.1c-0.2,3.4,0.2,6.6,1.2,9.8
		c1,3.2,2.4,6.2,4.3,9c0.5,0.8,0.5,1.3,0,1.5c-0.4,0.2-0.9,0-1.4-0.7c-0.9-1.2-1.8-2.6-2.5-4.1c-0.8-1.5-1.5-3.1-2-4.9
		c-0.6-1.7-1.1-3.5-1.5-5.3c-0.4-1.8-0.6-3.6-0.6-5.3c-0.2-5.1,0.9-9.4,3.3-13.1c2.4-3.7,5.9-7.2,10.7-10.4c3.1-2,6.3-3.7,9.6-5
		c3.3-1.3,6.7-2.3,10.2-3.1c3.5-0.7,7.2-1.3,10.9-1.7c3.8-0.4,7.8-0.7,12-0.9c0.6-0.7,1.2-1.3,1.8-1.8c0.5-0.5,1.1-1,1.7-1.4
		c0.4-0.3,0.7-0.2,0.9,0s0.4,0.7,0.6,1.2c0.2,0.5,0.5,1,0.9,1.5c0.4,0.5,1,0.7,1.8,0.7c4.8,0.1,9.2,0.3,13.2,0.8
		c4,0.5,7.6,0.9,10.7,1.5c1.4,0.5,2.1,1.3,2.1,2.6C270.5,101.7,270.2,102.1,269.5,102.2z"/>
	<path class="st2" d="M266.4,141.2c0.9-3.7,2.2-7.4,3.8-11.1v-0.3c24-54.4,49.7-82.5,77.2-84.2c9.5-0.5,17.8,2.3,24.9,8.5
		c7.3,6.1,10.6,13,9.9,20.8c-0.3,2.5-1,4.9-2.1,7.2c-6.2,11.7-22.7,22.7-49.7,32.9c-9.3,3.6-18.7,6.7-28.2,9.3
		c-9.5,2.7-19.2,4.9-29,6.8c-1.1,3-2,6.2-2.8,9.6c-0.7,3.3-1.2,6.3-1.2,9c-0.1,3,0.3,5.3,1.3,6.6c1,1.4,2.3,2.1,3.8,2.3
		c1.5,0.2,3.2-0.1,5-0.8c1.8-0.7,3.5-1.7,5-2.9c0.8-0.6,1.6-1.3,2.3-2c0.7-0.7,1.4-1.4,2.1-2.2c0.5-0.5,0.9-0.7,1.1-0.6
		c0.2,0.1,0.1,0.5-0.4,1.2c-0.5,0.6-1.2,1.4-2,2.2c-0.8,0.8-1.6,1.6-2.3,2.2c-2.3,2-4.6,3.5-6.9,4.5c-2.3,1-4.4,1.3-6.3,1.1
		c-1.9-0.3-3.4-1.2-4.7-2.7c-1.2-1.5-1.9-3.8-1.9-6.9C265.1,148.3,265.5,144.8,266.4,141.2z M379.2,76.3c0.3-1,0.5-2.1,0.6-3.2
		c0.7-6.9-2.2-12.9-8.7-18.2c-6.5-5.4-14.4-8-23.6-7.7c-15.7,0.7-31.6,12.5-47.8,35.2c-4.9,6.8-9.5,14-13.6,21.4
		c-4.2,7.5-8,15.4-11.6,23.7h0.1c-0.1,0.3-0.3,0.6-0.4,1c-0.1,0.3-0.3,0.6-0.5,1c11.9-2.5,23.1-5.3,33.6-8.5
		c10.5-3.2,20.4-6.8,29.7-10.9c22-9.7,35.8-19.9,41.1-30.8C378.5,78.3,378.9,77.3,379.2,76.3z"/>
	<path class="st2" d="M341.5,135.4c-1.5,1-3.1,1.6-4.9,1.9c-1.1,0.2-2.7,0.3-4.9,0.4c-2.2,0.1-4.6,0.1-7.2,0.2
		c-2.6,0.1-5.2,0.1-7.8,0.1c-2.6,0-4.9,0-6.8,0c-0.7,1-1.5,2.1-2.3,3.3c-0.8,1.2-1.6,2.5-2.3,3.8c-0.7,1.4-1.3,2.8-1.8,4.2
		c-0.5,1.5-0.8,3-0.9,4.5c-0.1,1.4,0.1,2.6,0.4,3.5c0.4,0.9,0.8,1.6,1.5,2.1c0.6,0.5,1.3,0.8,2.1,1c0.8,0.2,1.6,0.2,2.5,0.1
		c2.1-0.3,4.4-0.9,6.9-1.8c2.4-0.9,4.5-1.8,6.3-2.8c0.5-0.3,0.9-0.4,1.2-0.1c0.3,0.2,0.1,0.5-0.4,0.8c-0.7,0.5-1.6,1.1-2.5,1.7
		c-1,0.6-2,1.2-3.2,1.8c-1.2,0.6-2.4,1.1-3.6,1.6c-1.3,0.5-2.5,0.8-3.6,1c-1,0.2-2,0.1-3.2-0.3c-1.2-0.4-2.2-1.1-3.2-1.9
		c-1-0.8-1.8-1.8-2.4-3c-0.6-1.1-0.9-2.3-0.9-3.6c0.2-3.6,1.2-7.1,3-10.7c1.8-3.6,4-6.9,6.5-10c2.6-3.1,5.3-5.7,8.1-8
		c2.8-2.2,5.4-3.8,7.6-4.7c1.2-0.4,2.3-0.3,3.3,0.1c1,0.5,1.7,1.2,2.3,2.1c0.6,0.9,0.9,2,1,3.2c0.1,1.2-0.1,2.2-0.7,3.2
		c-1,1.8-2.7,3.3-5.3,4.6c-2.5,1.2-5.4,2.1-8.7,2.6c1.8,0,3.5,0,5.4,0c1.9,0,3.7,0,5.4,0c1.7,0,3.3-0.1,4.7-0.1
		c1.5-0.1,2.7-0.2,3.7-0.3c1.4-0.1,2.7-0.5,4.1-1.3c1.4-0.7,2.5-1.4,3.3-2.1c0.3-0.5,0.6-0.6,0.8-0.5c0.2,0.1,0.2,0.4-0.1,0.9
		C344,133.5,342.9,134.4,341.5,135.4z M330,125.5c0.1-0.8-0.1-1.4-0.5-1.8c-0.4-0.4-1-0.6-1.7-0.6c-0.7,0-1.6,0.3-2.6,0.8
		c-2.4,1.4-4.8,3.2-7.3,5.4c-2.5,2.2-4.8,4.6-7,7c1.7,0,3.4-0.2,5.3-0.6c1.8-0.4,3.5-1,5.2-1.7c1.6-0.7,3.1-1.6,4.4-2.6
		c1.3-1,2.4-2,3.2-3.2C329.6,127.2,330,126.3,330,125.5z"/>
	<path class="st2" d="M338.5,171.1c0,0.6-0.5,0.9-1.5,0.7c-1.8-0.2-3.8-0.3-6.2-0.3c-0.5,1.2-1,2.5-1.6,3.8c-0.5,1.3-1,2.6-1.6,3.9
		c-7.8,19.5-15.9,35.3-24.1,47.3c-8.2,12-16.5,20.3-24.9,24.9c-4.6,2.4-9,3.6-13.3,3.6c-6.9,0-12.7-2.8-17.6-8.5
		c-2.4-2.9-4.2-6-5.4-9.4c-1.2-3.3-1.8-7-1.8-11c0-11.6,5.2-21.9,15.5-30.7c5.3-4.6,11.2-8.6,17.8-12c6.6-3.4,13.9-6.2,21.8-8.3
		c5.7-1.5,11.3-2.7,16.7-3.6c5.4-0.9,10.9-1.3,16.4-1.4c0.6-1.2,1.1-2.2,1.6-3.2c0.5-0.9,1-1.9,1.4-2.8c0.5-0.9,0.9-1.9,1.5-3
		c0.5-1,1.2-2.2,1.9-3.5c1.4-2.5,2.8-5,4.1-7.5c1.3-2.6,2.7-5.1,4.1-7.6c-1.3-1.2-1.8-2.1-1.7-2.9c0.4-1.1,2.1-2.3,5.2-3.5
		c1.6-2.5,3.7-5.6,6.1-9.3c2.5-3.8,5.4-8.2,8.8-13.2c0.3-0.5,1.5-1.2,3.5-1.9c0.8-0.3,1.3-0.2,1.3,0.3c0,0.3-0.1,0.4-0.3,0.5
		c-0.2,0.1-0.5,0.4-0.9,1c-1.9,2.9-4,6-6.3,9.4c-2.2,3.4-4.6,7.3-7.1,11.6c2.7-1,5-1.8,7.1-2.2c2.1-0.5,4-0.7,5.6-0.7
		c4.7,0,7,2.1,7,6.4c0,3.4-1.5,7.1-4.5,11.3c7.9-2.1,12.5-3.1,13.6-3.2c0.3-0.1,0.5-0.1,0.7,0c0.1,0.1,0.1,0.2,0,0.3
		c-0.2,0.2-0.4,0.3-0.7,0.4c-2.3,0.6-4.8,1.4-7.6,2.3c-2.8,0.9-5.8,1.9-9.1,3c-5.4,5.1-12.4,8.1-20.7,9c-1.4,0.1-2-0.5-2-1.8
		c0-0.4,0.1-0.7,0.4-1c0.8-0.5,3-1.4,6.5-2.7s8.4-2.9,14.6-5c3.3-3.8,5-7.7,5-11.8c0-3.5-1.9-5.3-5.8-5.3c-1.5,0-3.2,0.3-5.1,1
		c-1.9,0.6-4.1,1.6-6.6,2.9c-1.2,2.1-2.5,4-3.9,5.8c-1.4,1.8-2.9,3.9-4.5,6.2c-1.6,2.3-3.3,5.1-5.1,8.4c-1.8,3.3-3.7,7.4-5.7,12.4
		c2.1,0,4,0.1,5.7,0.3C338,170.4,338.5,170.7,338.5,171.1z M326.6,175.5c0.5-1.2,1.1-2.5,1.8-4c-4.9,0.1-9.9,0.5-14.8,1.3
		c-5,0.8-10.1,2-15.4,3.6c-7.7,2.3-14.7,5.1-21.1,8.5c-6.4,3.4-12.3,7.4-17.5,12c-11.8,10.1-17.7,20.5-17.7,31.4
		c0,6.9,2.5,12.7,7.5,17.6c2.3,2.4,4.9,4.2,7.7,5.3c2.8,1.1,5.9,1.7,9.1,1.7c4.2,0,8.1-1,11.8-3c7.3-4,14.8-11.4,22.3-22.5
		c2.8-4,5.6-8.5,8.4-13.3c2.8-4.9,5.5-10.2,8.2-16.1c1.4-3.1,2.8-6.3,4.2-9.5c1.4-3.2,2.8-6.4,4.3-9.6
		C325.7,177.8,326.1,176.7,326.6,175.5z"/>
	<path class="st2" d="M391.4,138c-3.4,5.9-6.9,12.2-10.5,18.8c0.3-0.3,0.7-0.7,1.3-1.3c0.5-0.6,1.2-1.3,2.1-2.2
		c2.1-2.1,4.3-4.1,6.6-6.2c2.3-2.1,4.7-4.1,7.2-6.2c6-4.7,10-7.2,12.2-7.4c0.3-0.3,1.5-0.8,3.8-1.4c0.4-0.1,0.9,0.1,1.5,0.6
		c0.6,0.5,0.9,1,0.9,1.5c0,0.3,0,0.4-0.1,0.5c-1.1,1.4-2.3,3-3.5,4.9c-1.2,1.9-2.5,4.1-3.9,6.5c-3.2,5.8-4.8,9.8-4.8,12.2
		c0,1.7,0.9,2.5,2.6,2.5c3.2,0,8.4-2.7,15.6-8.2c0.2-0.1,0.4-0.2,0.5-0.3c0.2-0.1,0.3-0.1,0.3-0.2c0.1,0.1,0.1,0.1,0.1,0.2l0.1,0.1
		l-0.7,0.7c-8.4,6.9-14.5,10.3-18.3,10.3c-1.2,0-2.4-0.6-3.6-1.8c-1.5-1.2-2.1-2.5-1.8-4c1.2-5.1,4.7-11.4,10.4-19
		c0.3-0.3,0.4-0.7,0.4-1.3c0-0.9-0.5-1.4-1.5-1.4c-0.6,0-1.2,0.2-1.9,0.7c-3.6,1.9-8.7,6-15.2,12.3c-5.4,5.3-9.6,9.6-12.5,13.1
		c-0.1-0.3-0.5,0-1.1,0.8c-0.1,0.3-0.3,0.5-0.5,0.5c-0.5,0-0.8-0.5-0.8-1.6c0-0.3,0-0.6,0.1-0.8c2.6-5.5,5.7-11.6,9.3-18.2
		c3.6-6.6,7.7-14,12.4-22c-0.3-0.1-0.7-0.1-1.2-0.2c-0.5-0.1-1-0.2-1.6-0.3c-0.9-0.2-1.7-0.8-2.4-1.8c-0.7-1-1.1-1.9-1.1-2.8
		c0-0.4,0.1-0.7,0.2-1c0.1-0.3,0.3-0.5,0.5-0.8c3.2-3.4,7.9-5.7,14.3-7.1c9.1-13.7,18.2-24.7,27.3-32.9c9.1-8.3,18.4-14.1,27.9-17.4
		c5.1-1.8,10.1-2.7,15.1-2.7c8.3,0,15.2,2.3,20.8,7c5.3,4.5,8,10,8,16.2c0,4.8-1.7,9.3-5,13.6c-3.6,4.7-8.9,8.8-16.1,12.1
		c-26.1,12.3-51.8,18.4-77,18.4c-1.1,0-2.2,0-3.3,0c-1.1,0-2.2-0.1-3.2-0.1C398.1,126.4,394.8,132.1,391.4,138z M402.8,113.5
		c1.2-1.9,2.4-3.7,3.6-5.5c-2.7,0.8-5,1.8-7,3c-1.9,1.2-3.5,2.5-4.8,4c-0.5,0.5-0.8,1.1-0.8,1.8c0,1.1,0.7,1.8,2.1,1.9
		c0.9,0.1,1.6,0.2,2.2,0.3c0.6,0.1,0.9,0.1,1.1,0.1C400.4,117.2,401.6,115.4,402.8,113.5z M405.7,119.5c1.2,0.1,2.4,0.1,3.7,0.1
		c5.4,0,10.8-0.3,16.3-1c5.5-0.7,11.1-1.7,16.9-3c7.3-1.8,14.4-4,21.2-6.6c6.8-2.7,13.4-5.8,19.7-9.5c13.5-7.8,20.2-16.1,20.2-24.7
		c0-5.6-2.7-10.3-8.2-14c-5.4-3.9-11.8-5.8-19.1-5.8c-4.7,0-9.3,0.9-13.8,2.8c-10.9,4.5-21.3,11.9-31.3,22.1
		c-10,10.2-19.7,23.4-29.2,39.4C403.3,119.4,404.5,119.4,405.7,119.5z"/>
	<path class="st2" d="M430.3,162.3c-1.6,0-2.4-1.1-2.4-3.4c0-4.6,3.6-10.5,10.8-17.7c3.3-3.3,6.4-6,9.3-8c2.9-2,5.6-3.6,8.2-4.6
		c0.6-0.2,1.2-0.4,1.9-0.5c0.7-0.2,1.4-0.2,2.1-0.2c0.8,0,1.6,0.1,2.3,0.2c0.8,0.2,1.6,0.4,2.3,0.6c1.1,0.1,1.7,0.2,1.8,0.1
		c1.2-0.2,2-0.6,2.5-1.3c0.1-0.1,0.3-0.2,0.6-0.2c0.3,0,0.5,0.2,0.7,0.5c0.2,0.3,0.3,0.6,0.2,0.7c-1.9,2.9-3.7,5.8-5.6,8.6
		s-3.6,5.7-5.4,8.6c-1.4,2.3-2.7,4.9-4,7.8c-1.3,3-2.5,5.9-3.6,8.9c-1.1,3-2,5.9-2.8,8.6s-1.3,5-1.6,6.9c-0.1,0.3-0.1,0.6-0.1,0.9
		c0,0.3,0,0.6,0,1c0,2.2,0.7,3.8,2,4.9c1.4,1.1,3.2,1.6,5.5,1.6c2.3,0,4.6-0.4,6.9-1.2c3.4-1.2,7.9-4,13.4-8.4
		c2.7-2.1,5-4.3,7.1-6.6c2.1-2.3,3.9-4.4,5.5-6.4c0.6-0.6,1-1,1.2-1c0.1,0.1,0.1,0.2,0.1,0.3c0,0.3-0.1,0.6-0.4,1.1
		c-1.5,2.2-3.3,4.5-5.4,7c-2.1,2.5-4.6,4.9-7.5,7.4c-2.7,2.2-5.2,4-7.3,5.4c-2.2,1.4-4.2,2.5-6,3.1c-0.9,0.3-1.8,0.6-2.7,0.7
		c-0.9,0.2-1.9,0.2-2.9,0.2c-1.6,0-3-0.2-4.3-0.7c-1.3-0.5-2.5-1.1-3.5-1.8c-1.2-0.7-2.1-1.7-2.6-3.1c-0.5-1.3-0.7-2.8-0.6-4.5
		c0.1-1.4,0.3-3.2,0.8-5.4c0.5-2.3,1.1-4.7,1.9-7.2c0.8-2.6,1.6-5.1,2.5-7.6c0.9-2.5,1.8-4.8,2.7-6.7c1.1-2.3,2.2-4.5,3.3-6.5
		c1.1-2,2.2-3.9,3.3-5.5c0.5-0.7,0.4-1.1-0.1-1.1c-0.1,0-0.2,0.1-0.3,0.2c-1.6,1.9-3.4,3.9-5.6,5.9c-2.2,2.1-4.7,4.3-7.5,6.8
		c-5.7,4.8-10.6,8.4-14.7,10.8C431.7,162.1,431,162.3,430.3,162.3z M433.7,155.5c0,1.6,0.6,2.3,1.8,2.3c0.5,0,0.9-0.2,1.5-0.5
		c3.6-2.3,7.5-5.3,11.5-9.2c4-3.9,8.3-8.5,12.9-14.1c0.2-0.2,0.3-0.4,0.3-0.7c0-0.7-0.4-1.4-1.3-2c-0.8-0.6-1.9-0.9-3.2-0.9
		c-0.7,0-1.5,0.1-2.2,0.3c-3,0.8-6.9,3.7-11.6,8.9c-2.2,2.5-4.1,4.8-5.6,7.1c-1.5,2.3-2.7,4.4-3.6,6.5
		C433.9,154,433.7,154.7,433.7,155.5z"/>
	<path class="st2" d="M468.3,160.1c-0.3-0.3-0.2-0.8,0.2-1.6c1.5-3.2,4-7.5,7.6-12.9c1.7-2.6,3.3-4.9,4.8-7c1.5-2,2.9-3.8,4.2-5.4
		c0.2-0.3,0.5-0.6,0.8-0.8c0.4-0.2,0.9-0.4,1.6-0.5c0.4-0.1,0.6-0.1,0.7,0c0,0.3-0.1,0.5-0.3,0.7c-2.5,2.9-4.6,5.7-6.4,8.5
		c-1.8,2.8-3.3,5.7-4.6,8.6c-0.3,0.3-0.4,0.7-0.4,1.3c0,0.7,0.3,1.1,0.8,1.1c0.4,0,0.8-0.2,1.2-0.7c1.8-1.8,3.7-3.5,5.7-5.2
		c2-1.7,4-3.4,6.1-5.1c4.9-3.9,8.1-6.2,9.8-6.8c0.9-0.8,1.7-1.3,2.4-1.6c1.4-0.6,2.6-0.8,3.4-0.4c0.9,0.3,0.9,1.1-0.1,2.2
		c-4.6,5.9-8.8,12.7-12.5,20.4c-3.6,7.7-5.5,13.7-5.7,18.3c-0.3,3,0.4,5.3,1.8,6.9c1.4,1.4,3.1,2.1,5.4,2.1c1,0,2-0.1,2.8-0.4
		c3.7-1,8.3-3.9,13.9-8.7c6.2-5.3,9.2-9.5,9.2-12.6c0-0.6-0.1-1.1-0.4-1.4c-0.3-0.3-0.6-0.5-1-0.6c-0.4-0.1-0.7-0.1-1.1-0.1
		c-0.3,0-0.4-0.1-0.4-0.3c0-0.4,0.3-0.7,0.8-1c0.6-0.3,1.1-0.4,1.5-0.4c1.1,0,1.7,0.7,1.7,2.2c0,0.7-0.2,1.7-0.6,2.8
		c-0.6,1.9-1.6,3.9-3.1,5.9c-1.5,2.1-3.4,4.2-5.6,6.5c-6.2,6.2-13,9.6-20.2,10.4c-2.6,0.3-4.7-0.5-6.4-2.1c-1.8-1.9-2.6-5-2.2-9.1
		c0.4-4.7,2.4-10.5,6.1-17.6c1.5-3,3.1-5.9,4.7-8.6c1.7-2.8,3.4-5.4,5.3-8c0.2-0.3,0.3-0.6,0.3-1c0-1-0.6-1.6-1.8-1.6
		c-0.5,0-1,0.2-1.6,0.5c-3.7,2.6-7.4,5.6-11,9.1c-3.7,3.5-7.4,7.5-11.2,12c-0.6,0.8-2.3,1.6-5,2.1
		C468.7,160.6,468.3,160.5,468.3,160.1z"/>
	<path class="st2" d="M505,211c-1.8-1.9-2.9-4-3.3-6.4c-0.5-2.4-0.7-4.9-0.7-7.7c0-9.1,3.7-22.2,11.2-39.3
		c3.3-7.5,6.6-14.3,9.9-20.3c3.3-6,6.6-11.4,9.9-16.2c0.8-0.8,1.2-1.8,1.2-2.9c0-1.2-0.6-2.1-1.8-2.7c-2.3-0.9-3.2-1.9-2.7-3
		c0.2-0.4,1.2-0.7,2.9-0.9c1.7-0.2,4.1-0.3,7.2-0.3c0.3,0,0.3-0.1,0.1-0.3c-0.2-0.2-0.2-0.4-0.1-0.6c3.1-4.9,6.7-9.7,10.8-14.5
		c4.1-4.8,8.4-9.8,12.8-15c0.4-0.5,2.2-1.3,5.4-2.5c1.6-0.5,2.7-0.9,3.4-1.2c0.7-0.3,1.4-0.4,2.2-0.4c0.7,0,1.1,0.3,1.1,0.9
		c0,0.3-0.3,0.5-1,0.7c-6.1,1.2-16.2,11.5-30.3,30.8c-1,1.5-0.8,2.2,0.7,2.2h14.1c3.8,0,6.8,0,8.9,0c2.1,0,3.4,0,3.9,0
		c0.6,0,1,0.1,1.2,0.3c0,0.1-0.2,0.5-0.5,1c-0.4,0.6-0.8,0.9-1.4,0.9c-3.7,0.1-7.9,0.3-12.7,0.6c-4.8,0.3-10.2,0.6-16.3,0.9
		c-1.1,0.2-1.9,0.7-2.4,1.6c-3.4,5.1-6.7,10.1-9.7,15.1c-3,5-6,10.4-9,16.2c-4.5,9.3-8,17.7-10.6,25.2c-2.6,7.6-4.2,14.3-4.7,20.4
		c-0.1,0.8-0.1,1.6-0.1,2.3c0,0.8,0,1.6,0,2.3c0,11.3,4,16.9,12,16.9c2.3,0,4.8-0.4,7.6-1.3c4.1-1.3,8.1-3.3,12.2-6.1
		c4-2.8,8.1-6.4,12.3-10.9c4.3-4.5,7.6-8.7,9.9-12.5c2.3-3.9,3.7-7.6,4.2-11.1c0-6.1-2.2-8.8-6.5-8.1c-1,0.1-1.8,0.4-2.5,0.9
		c-0.7,0.5-1.2,0.7-1.6,0.7c-0.6,0-0.9-0.3-0.8-0.9c0.3-0.5,0.8-1,1.4-1.4c0.6-0.4,1.8-0.9,3.5-1.7c0.3-0.1,0.6-0.1,1.2-0.1
		c2.1,0,4.1,1.4,5.9,4.2c1.9,2.9,2.9,5.1,2.7,6.6c-1.3,8.6-7.5,17.9-18.6,27.9c-5.6,5.1-10.9,8.9-15.8,11.5s-9.5,3.9-13.9,3.9
		C512.7,216.9,508.4,214.9,505,211z"/>
	<path class="st2" d="M578.9,135.4c-1.5,1-3.1,1.6-4.9,1.9c-1.1,0.2-2.7,0.3-4.9,0.4c-2.2,0.1-4.6,0.1-7.2,0.2
		c-2.6,0.1-5.2,0.1-7.8,0.1s-4.9,0-6.8,0c-0.7,1-1.5,2.1-2.3,3.3c-0.8,1.2-1.6,2.5-2.3,3.8c-0.7,1.4-1.3,2.8-1.8,4.2
		c-0.5,1.5-0.8,3-0.9,4.5c-0.1,1.4,0.1,2.6,0.4,3.5c0.4,0.9,0.8,1.6,1.5,2.1s1.3,0.8,2.1,1c0.8,0.2,1.6,0.2,2.5,0.1
		c2.1-0.3,4.4-0.9,6.9-1.8c2.4-0.9,4.5-1.8,6.3-2.8c0.5-0.3,0.9-0.4,1.2-0.1c0.3,0.2,0.1,0.5-0.4,0.8c-0.7,0.5-1.6,1.1-2.5,1.7
		c-1,0.6-2,1.2-3.2,1.8c-1.2,0.6-2.4,1.1-3.6,1.6c-1.3,0.5-2.5,0.8-3.6,1c-1,0.2-2,0.1-3.2-0.3c-1.2-0.4-2.2-1.1-3.2-1.9
		c-1-0.8-1.8-1.8-2.4-3c-0.6-1.1-0.9-2.3-0.9-3.6c0.2-3.6,1.2-7.1,3-10.7c1.8-3.6,4-6.9,6.5-10c2.6-3.1,5.3-5.7,8.1-8
		c2.8-2.2,5.4-3.8,7.6-4.7c1.2-0.4,2.3-0.3,3.3,0.1c1,0.5,1.7,1.2,2.3,2.1c0.5,0.9,0.9,2,1,3.2c0.1,1.2-0.1,2.2-0.7,3.2
		c-1,1.8-2.7,3.3-5.3,4.6c-2.5,1.2-5.4,2.1-8.7,2.6c1.8,0,3.5,0,5.3,0c1.9,0,3.7,0,5.4,0c1.7,0,3.3-0.1,4.7-0.1
		c1.5-0.1,2.7-0.2,3.7-0.3c1.4-0.1,2.7-0.5,4.1-1.3c1.4-0.7,2.5-1.4,3.3-2.1c0.3-0.5,0.6-0.6,0.8-0.5c0.2,0.1,0.2,0.4-0.1,0.9
		C581.4,133.5,580.4,134.4,578.9,135.4z M567.5,125.5c0.1-0.8-0.1-1.4-0.5-1.8c-0.4-0.4-1-0.6-1.7-0.6c-0.7,0-1.6,0.3-2.6,0.8
		c-2.4,1.4-4.8,3.2-7.3,5.4c-2.5,2.2-4.8,4.6-7,7c1.7,0,3.4-0.2,5.3-0.6c1.8-0.4,3.5-1,5.2-1.7c1.6-0.7,3.1-1.6,4.4-2.6
		c1.3-1,2.4-2,3.2-3.2C567.1,127.2,567.4,126.3,567.5,125.5z"/>
	<path class="st2" d="M613.1,136.8c-2.2,1.4-4.5,3-6.8,4.6c-2.3,1.7-4.6,3.3-6.8,4.9c-2.2,1.6-4,3-5.4,4c0.2,1,0.5,2.4,1.1,4.1
		c0.5,1.7,1.1,3.4,1.7,5.2c0.6,1.8,1.3,3.4,2,5c0.7,1.6,1.4,2.8,2.1,3.6c0.8,1,1,1.5,0.6,1.7c-0.4,0.1-0.9-0.2-1.6-0.9
		c-0.6-0.7-1.3-1.8-2-3.2c-0.8-1.4-1.5-3-2.3-4.6c-0.7-1.7-1.4-3.3-2.1-5c-0.6-1.7-1.2-3.1-1.6-4.3c-1.4,1-2.9,2.1-4.6,3.5
		c-1.7,1.4-3.5,2.9-5.3,4.6c-1.8,1.7-3.7,3.5-5.7,5.4c-1.9,1.9-3.8,3.9-5.6,6c-0.9,1-2,2.4-3.2,4c-1.2,1.6-2.3,3.3-3.2,5.2
		c-0.9,1.8-1.5,3.7-1.7,5.5c-0.2,1.9,0.2,3.6,1.2,5.3c0.7,1.3,1.6,2.3,2.7,2.9c1.1,0.6,2.2,1.1,3.3,1.4c0.5,0.2,0.7,0.4,0.5,0.7
		c-0.2,0.3-0.5,0.3-1,0.1c-1-0.2-2.1-0.7-3.3-1.5c-1.2-0.8-2.2-1.7-3-2.8c-1.2-1.7-1.8-3.4-1.9-5.3c-0.1-1.8,0.2-3.6,0.9-5.5
		c0.7-1.8,1.7-3.7,3-5.5c1.3-1.8,2.7-3.7,4.2-5.6c1.6-1.9,3.4-3.8,5.3-5.7c1.9-1.9,3.8-3.8,5.8-5.6c1.9-1.8,3.9-3.5,5.7-5.1
		c1.9-1.6,3.6-3,5.2-4.3c-0.3-1-0.5-2.2-0.8-3.6c-0.3-1.5-0.6-2.9-0.8-4.4c-0.3-1.5-0.5-3-0.7-4.4c-0.2-1.4-0.3-2.6-0.4-3.6
		c-0.1-0.4,0-0.8,0.2-1.1c0.2-0.4,0.4-0.6,0.7-0.8c0.3-0.2,0.5-0.2,0.8-0.1c0.3,0.1,0.4,0.4,0.5,1c0.2,1,0.4,2.3,0.6,3.6
		c0.2,1.4,0.4,2.8,0.6,4.2c0.2,1.4,0.5,2.8,0.7,4.1c0.2,1.3,0.5,2.4,0.8,3.4c1.2-1,3-2.3,5.2-3.9c2.2-1.7,4.5-3.3,6.9-5
		c2.4-1.7,4.7-3.2,6.9-4.7c2.2-1.4,3.9-2.5,5.2-3.1c0.5-0.3,0.8-0.3,1.2-0.1c0.3,0.2,0.6,0.5,0.7,0.8c0.2,0.3,0.2,0.7,0,1.1
		c-0.1,0.4-0.5,0.8-1,1C617.1,134.4,615.3,135.4,613.1,136.8z"/>
	<path class="st2" d="M612.9,211c-1.8-1.9-2.9-4-3.3-6.4c-0.5-2.4-0.7-4.9-0.7-7.7c0-9.1,3.7-22.2,11.2-39.3
		c3.3-7.5,6.6-14.3,9.9-20.3c3.3-6,6.6-11.4,9.9-16.2c0.8-0.8,1.2-1.8,1.2-2.9c0-1.2-0.6-2.1-1.8-2.7c-2.3-0.9-3.2-1.9-2.7-3
		c0.2-0.4,1.2-0.7,2.9-0.9c1.7-0.2,4.1-0.3,7.2-0.3c0.3,0,0.3-0.1,0.1-0.3c-0.2-0.2-0.2-0.4-0.1-0.6c3.1-4.9,6.7-9.7,10.8-14.5
		c4.1-4.8,8.4-9.8,12.8-15c0.4-0.5,2.2-1.3,5.4-2.5c1.6-0.5,2.7-0.9,3.4-1.2c0.7-0.3,1.4-0.4,2.2-0.4c0.7,0,1.1,0.3,1.1,0.9
		c0,0.3-0.3,0.5-1,0.7c-6.1,1.2-16.2,11.5-30.3,30.8c-1,1.5-0.8,2.2,0.7,2.2H666c3.8,0,6.8,0,8.9,0c2.1,0,3.4,0,3.9,0
		c0.6,0,1,0.1,1.2,0.3c0,0.1-0.2,0.5-0.5,1c-0.4,0.6-0.8,0.9-1.4,0.9c-3.7,0.1-7.9,0.3-12.7,0.6c-4.8,0.3-10.2,0.6-16.3,0.9
		c-1.1,0.2-1.9,0.7-2.4,1.6c-3.4,5.1-6.7,10.1-9.7,15.1c-3,5-6,10.4-9,16.2c-4.5,9.3-8,17.7-10.6,25.2c-2.6,7.6-4.2,14.3-4.7,20.4
		c-0.1,0.8-0.1,1.6-0.1,2.3c0,0.8,0,1.6,0,2.3c0,11.3,4,16.9,12,16.9c2.3,0,4.8-0.4,7.6-1.3c4.1-1.3,8.1-3.3,12.2-6.1
		c4-2.8,8.1-6.4,12.3-10.9c4.3-4.5,7.6-8.7,9.9-12.5c2.3-3.9,3.7-7.6,4.2-11.1c0-6.1-2.2-8.8-6.5-8.1c-1,0.1-1.8,0.4-2.5,0.9
		c-0.7,0.5-1.2,0.7-1.6,0.7c-0.6,0-0.9-0.3-0.8-0.9c0.3-0.5,0.8-1,1.4-1.4c0.6-0.4,1.8-0.9,3.5-1.7c0.3-0.1,0.6-0.1,1.2-0.1
		c2.1,0,4.1,1.4,5.9,4.2c1.9,2.9,2.9,5.1,2.7,6.6c-1.3,8.6-7.5,17.9-18.6,27.9c-5.6,5.1-10.9,8.9-15.8,11.5s-9.5,3.9-13.9,3.9
		C620.6,216.9,616.3,214.9,612.9,211z"/>
</g>
</svg>
